<svg width="14" height="14" xmlns="http://www.w3.org/2000/svg" viewBox="0 0 14 14">
  <path d="M.92.517c.56-.56 2.253-.654 2.266-.358.013.297 1.525 3.584 1.538 3.88.013.297-.997 1.307-1.293 1.603-.292.293 1.977 2.858 2.02 2.907.048.043 2.612 2.313 2.905 2.02.296-.296 1.306-1.306 1.602-1.293.296.013 3.582 1.526 3.878 1.539.296.013.203 1.706-.357 2.267-.479.479-2.96 2.218-7.273-.888-.473-.272-1.222-.897-2.358-2.032l-.002-.002-.003-.003a.034.034 0 00-.002-.003c-.001 0-.002 0-.003-.002C2.703 9.016 2.08 8.266 1.807 7.793-1.298 3.478.441.996.92.517z" fill="#fff"/>
</svg>
